<svg xmlns="http://www.w3.org/2000/svg" xmlns:xlink="http://www.w3.org/1999/xlink" version="1.1" x="0px" y="0px" viewBox="0 0 100 125" style="enable-background:new 0 0 100 100;" xml:space="preserve"><path style="fill: #ffdead;" d="M95,76v12c0,3.86-3.14,7-7,7H12c-3.86,0-7-3.14-7-7V76c0-3.86,3.14-7,7-7s7,3.14,7,7v5h62v-5c0-3.86,3.14-7,7-7  S95,72.14,95,76z M48.44,68.41c0.43,0.43,1,0.62,1.56,0.58c0.05,0,0.1,0,0.14,0c0.51,0,1.02-0.2,1.41-0.59l19.29-19.29  c2.75-2.75,2.75-7.22,0-9.97v0c-1.33-1.33-3.1-2.06-4.99-2.06c-1.88,0-3.65,0.73-4.99,2.06L57,43.03V12c0-3.86-3.14-7-7-7  c-3.86,0-7,3.14-7,7v31.03l-3.87-3.87c-2.75-2.75-7.22-2.75-9.97,0c-2.75,2.75-2.75,7.22,0,9.97L48.44,68.41z"/></svg>